<svg width="107" height="20" viewBox="0 0 107 20" fill="none" xmlns="http://www.w3.org/2000/svg">
<path fill-rule="evenodd" clip-rule="evenodd" d="M54.5591 14.0248H54.5922V15.1853H56.4782V3H54.4929V8.4318H54.4433C54.344 8.30285 54.2172 8.17122 54.0627 8.0369C53.9083 7.90258 53.7208 7.77633 53.5002 7.65813C53.2797 7.53993 53.026 7.44322 52.7392 7.368C52.4524 7.29278 52.1216 7.25517 51.7466 7.25517C51.1841 7.25517 50.6657 7.35994 50.1914 7.56948C49.7171 7.77901 49.3118 8.06645 48.9754 8.4318C48.639 8.79714 48.3771 9.22695 48.1896 9.72124C48.0021 10.2155 47.9083 10.7474 47.9083 11.3169C47.9083 11.8864 47.9966 12.4183 48.173 12.9126C48.3495 13.4069 48.6087 13.8367 48.9506 14.2021C49.2925 14.5674 49.7034 14.8549 50.1831 15.0644C50.6629 15.2739 51.2116 15.3787 51.8293 15.3787C52.3918 15.3787 52.9157 15.2712 53.401 15.0563C53.8863 14.8414 54.2723 14.4976 54.5591 14.0248ZM26.325 3.63394H30.8475C31.2844 3.63394 31.7159 3.68647 32.142 3.79152C32.568 3.89658 32.9476 4.06798 33.2808 4.30573C33.614 4.54349 33.8843 4.85035 34.0919 5.22634C34.2995 5.60232 34.4032 6.0557 34.4032 6.5865C34.4032 7.25 34.2175 7.79738 33.8461 8.22866C33.4747 8.65993 32.9886 8.96956 32.3878 9.15755V9.19073C32.7483 9.23496 33.0842 9.33725 33.3955 9.49759C33.7068 9.65794 33.9717 9.86251 34.1902 10.1113C34.4087 10.3601 34.5807 10.6477 34.7064 10.9739C34.832 11.3001 34.8948 11.6512 34.8948 12.0272C34.8948 12.6686 34.7692 13.2021 34.5179 13.6279C34.2667 14.0536 33.9362 14.3964 33.5266 14.6563C33.1169 14.9161 32.6472 15.1014 32.1174 15.212C31.5876 15.3225 31.0496 15.3778 30.5034 15.3778H26.325V3.63394ZM28.2294 8.39638H30.1983C30.9174 8.39638 31.4568 8.26678 31.8163 8.00757C32.1759 7.74835 32.3556 7.40715 32.3556 6.98394C32.3556 6.49726 32.1702 6.13489 31.7992 5.89684C31.4282 5.65879 30.8318 5.53976 30.01 5.53976H28.2294V8.39638ZM30.1315 13.4743H28.2294V10.3003H30.2135C31.0552 10.3003 31.6755 10.4144 32.0745 10.6426C32.4735 10.8708 32.673 11.2753 32.673 11.8562C32.673 12.2193 32.591 12.5071 32.4271 12.7197C32.2631 12.9324 32.0554 13.0957 31.804 13.2098C31.5526 13.3239 31.2765 13.3966 30.9759 13.4277C30.6753 13.4588 30.3938 13.4743 30.1315 13.4743ZM37.1166 7.44359H39.021V15.0612H37.1166V7.44359ZM37.1537 3.96567C36.9174 4.18683 36.7992 4.44655 36.7992 4.74485C36.7992 5.04315 36.9174 5.30288 37.1537 5.52403C37.3901 5.74518 37.6896 5.85576 38.0524 5.85576C38.4151 5.85576 38.7201 5.75033 38.9675 5.53946C39.2148 5.32859 39.3384 5.06373 39.3384 4.74485C39.3384 4.42598 39.2148 4.16111 38.9675 3.95024C38.7201 3.73938 38.4151 3.63394 38.0524 3.63394C37.6896 3.63394 37.3901 3.74452 37.1537 3.96567ZM40.608 9.10204V7.4602H42.309V5.22279H44.3707V7.4602H46.6386V9.10204H44.3707V12.4823C44.3707 12.8686 44.448 13.1744 44.6027 13.3998C44.7573 13.6252 45.0637 13.7378 45.5219 13.7378C45.7051 13.7378 45.9056 13.719 46.1232 13.6815C46.3408 13.6439 46.5126 13.5822 46.6386 13.4964V15.1221C46.421 15.2187 46.1547 15.2858 45.8397 15.3233C45.5247 15.3609 45.247 15.3797 45.0064 15.3797C44.4566 15.3797 44.007 15.3233 43.6577 15.2107C43.3083 15.098 43.0334 14.9263 42.833 14.6956C42.6325 14.4648 42.4951 14.1778 42.4206 13.8344C42.3462 13.491 42.309 13.094 42.309 12.6433V9.10204H40.608ZM49.8128 11.411C49.8128 11.7195 49.8662 12.0171 49.9732 12.3037C50.0801 12.5902 50.2377 12.8437 50.4459 13.0641C50.6541 13.2845 50.9045 13.4608 51.1972 13.5931C51.4898 13.7254 51.8219 13.7915 52.1933 13.7915C52.5647 13.7915 52.8968 13.7254 53.1894 13.5931C53.482 13.4608 53.7325 13.2845 53.9407 13.0641C54.1489 12.8437 54.3065 12.5902 54.4134 12.3037C54.5203 12.0171 54.5738 11.7195 54.5738 11.411C54.5738 11.1024 54.5203 10.8048 54.4134 10.5183C54.3065 10.2317 54.1489 9.97824 53.9407 9.75782C53.7325 9.5374 53.482 9.36107 53.1894 9.22882C52.8968 9.09657 52.5647 9.03044 52.1933 9.03044C51.8219 9.03044 51.4898 9.09657 51.1972 9.22882C50.9045 9.36107 50.6541 9.5374 50.4459 9.75782C50.2377 9.97824 50.0801 10.2317 49.9732 10.5183C49.8662 10.8048 49.8128 11.1024 49.8128 11.411ZM61.0025 7.3279H59.0174V15.3791H61.0025V11.0683C61.0025 10.9565 61.0273 10.7888 61.0769 10.5651C61.1265 10.3415 61.2258 10.1179 61.3747 9.89421C61.5236 9.67056 61.7386 9.47208 62.0198 9.29876C62.301 9.12543 62.6732 9.03877 63.1364 9.03877C63.2908 9.03877 63.448 9.05275 63.6079 9.08071C63.7678 9.10866 63.9304 9.145 64.0959 9.18973V7.24403C63.9745 7.21048 63.856 7.18253 63.7402 7.16016C63.6244 7.1378 63.5059 7.12662 63.3845 7.12662C62.8552 7.12662 62.3865 7.25521 61.9785 7.5124C61.5704 7.76959 61.2561 8.13301 61.0356 8.60267H61.0025V7.3279ZM65.3655 11.4115C65.3655 10.7654 65.4776 10.1788 65.702 9.65167C65.9264 9.12455 66.2301 8.67395 66.6132 8.29987C66.9963 7.92579 67.4505 7.63673 67.9758 7.43268C68.5012 7.22864 69.0594 7.12662 69.6504 7.12662C70.2414 7.12662 70.7996 7.22864 71.325 7.43268C71.8503 7.63673 72.3045 7.92579 72.6876 8.29987C73.0707 8.67395 73.3744 9.12455 73.5988 9.65167C73.8231 10.1788 73.9353 10.7654 73.9353 11.4115C73.9353 12.0577 73.8231 12.6443 73.5988 13.1714C73.3744 13.6985 73.0707 14.1491 72.6876 14.5232C72.3045 14.8973 71.8503 15.1864 71.325 15.3904C70.7996 15.5945 70.2414 15.6965 69.6504 15.6965C69.0594 15.6965 68.5012 15.5945 67.9758 15.3904C67.4505 15.1864 66.9963 14.8973 66.6132 14.5232C66.2301 14.1491 65.9264 13.6985 65.702 13.1714C65.4776 12.6443 65.3655 12.0577 65.3655 11.4115ZM67.4303 12.3037C67.3234 12.0171 67.2699 11.7195 67.2699 11.411C67.2699 11.1024 67.3234 10.8048 67.4303 10.5183C67.5372 10.2317 67.6948 9.97824 67.903 9.75782C68.1112 9.5374 68.3617 9.36107 68.6543 9.22882C68.947 9.09657 69.279 9.03044 69.6504 9.03044C70.0219 9.03044 70.3539 9.09657 70.6465 9.22882C70.9392 9.36107 71.1896 9.5374 71.3978 9.75782C71.606 9.97824 71.7636 10.2317 71.8706 10.5183C71.9775 10.8048 72.0309 11.1024 72.0309 11.411C72.0309 11.7195 71.9775 12.0171 71.8706 12.3037C71.7636 12.5902 71.606 12.8437 71.3978 13.0641C71.1896 13.2845 70.9392 13.4608 70.6465 13.5931C70.3539 13.7254 70.0219 13.7915 69.6504 13.7915C69.279 13.7915 68.947 13.7254 68.6543 13.5931C68.3617 13.4608 68.1112 13.2845 67.903 13.0641C67.6948 12.8437 67.5372 12.5902 67.4303 12.3037ZM76.4746 7.63932H78.3606V8.81371H78.3937C78.6804 8.33525 79.0665 7.98729 79.5518 7.76981C80.0371 7.55233 80.561 7.44359 81.1235 7.44359C81.7301 7.44359 82.276 7.54961 82.7613 7.76165C83.2466 7.9737 83.6602 8.26457 84.0021 8.63429C84.344 9.004 84.6032 9.43896 84.7797 9.93916C84.9562 10.4394 85.0444 10.9776 85.0444 11.5539C85.0444 12.1303 84.9507 12.6685 84.7632 13.1687C84.5757 13.6689 84.3137 14.1039 83.9773 14.4736C83.6409 14.8433 83.2356 15.1342 82.7613 15.3462C82.2871 15.5583 81.7687 15.6643 81.2062 15.6643C80.8312 15.6643 80.5003 15.6262 80.2135 15.5501C79.9268 15.474 79.6731 15.3761 79.4525 15.2565C79.2319 15.1369 79.0444 15.0092 78.89 14.8732C78.7356 14.7373 78.6087 14.6041 78.5095 14.4736H78.4599V19.1875H76.4746V7.63932ZM82.6622 10.5183C82.7691 10.8048 82.8226 11.1024 82.8226 11.411C82.8226 11.7195 82.7691 12.0171 82.6622 12.3037C82.5552 12.5902 82.3977 12.8437 82.1894 13.0641C81.9812 13.2845 81.7308 13.4608 81.4382 13.5931C81.1455 13.7254 80.8135 13.7915 80.442 13.7915C80.0706 13.7915 79.7386 13.7254 79.4459 13.5931C79.1533 13.4608 78.9029 13.2845 78.6946 13.0641C78.4864 12.8437 78.3288 12.5902 78.2219 12.3037C78.115 12.0171 78.0615 11.7195 78.0615 11.411C78.0615 11.1024 78.115 10.8048 78.2219 10.5183C78.3288 10.2317 78.4864 9.97824 78.6946 9.75782C78.9029 9.5374 79.1533 9.36107 79.4459 9.22882C79.7386 9.09657 80.0706 9.03044 80.442 9.03044C80.8135 9.03044 81.1455 9.09657 81.4382 9.22882C81.7308 9.36107 81.9812 9.5374 82.1894 9.75782C82.3977 9.97824 82.5552 10.2317 82.6622 10.5183ZM86.9488 3H88.8532V15.3787H86.9488V3ZM93.8259 13.554C93.4184 13.2139 93.1806 12.7378 93.1127 12.1257H99.3275V11.5646C99.3275 10.8504 99.2341 10.2185 99.0474 9.66867C98.8606 9.11888 98.6002 8.65695 98.2663 8.28287C97.9323 7.90878 97.5304 7.62256 97.0607 7.42418C96.5909 7.2258 96.073 7.12662 95.507 7.12662C94.8957 7.12662 94.3183 7.22864 93.775 7.43268C93.2316 7.63673 92.7618 7.92579 92.3656 8.29987C91.9694 8.67395 91.6552 9.12455 91.4232 9.65167C91.1911 10.1788 91.0751 10.7654 91.0751 11.4115C91.0751 12.0577 91.1911 12.6443 91.4232 13.1714C91.6552 13.6985 91.9694 14.1491 92.3656 14.5232C92.7618 14.8973 93.2316 15.1864 93.775 15.3904C94.3183 15.5945 94.8957 15.6965 95.507 15.6965C96.1522 15.6965 96.7692 15.5718 97.3578 15.3224C97.9465 15.073 98.4785 14.6536 98.954 14.0641L97.4937 12.9589C97.2333 13.2763 96.9305 13.5398 96.5852 13.7496C96.2399 13.9593 95.8126 14.0641 95.3032 14.0641C94.7259 14.0641 94.2334 13.8941 93.8259 13.554ZM97.4231 10.6179C97.4119 10.0276 97.2274 9.56266 96.8696 9.22298C96.5117 8.88331 96.0141 8.71347 95.3768 8.71347C94.7729 8.71347 94.2949 8.88609 93.9426 9.23134C93.5904 9.57658 93.3751 10.0388 93.2969 10.6179H97.4231ZM100.597 7.4602V9.10204H102.298V12.6433C102.298 13.094 102.335 13.491 102.41 13.8344C102.484 14.1778 102.622 14.4648 102.822 14.6956C103.022 14.9263 103.297 15.098 103.647 15.2107C103.996 15.3233 104.446 15.3797 104.995 15.3797C105.236 15.3797 105.514 15.3609 105.829 15.3233C106.144 15.2858 106.41 15.2187 106.628 15.1221V13.4964C106.502 13.5822 106.33 13.6439 106.112 13.6815C105.895 13.719 105.694 13.7378 105.511 13.7378C105.053 13.7378 104.746 13.6252 104.592 13.3998C104.437 13.1744 104.36 12.8686 104.36 12.4823V9.10204H106.628V7.4602H104.36V5.22279H102.298V7.4602H100.597Z" fill="#37215A"/>
<rect width="20" height="20" rx="4.88505" fill="#37215A"/>
<path fill-rule="evenodd" clip-rule="evenodd" d="M9.97683 4.26931C10.2855 4.61654 10.5941 4.99683 10.9028 5.41019C11.2114 5.82355 11.5702 6.35264 11.9791 6.99749C12.3881 7.64233 12.716 8.3533 12.9629 9.13042C13.2099 9.90755 13.3333 10.6681 13.3333 11.4122C13.3333 12.4704 12.9707 13.3674 12.2453 14.1031C11.52 14.8389 10.6481 15.2068 9.62961 15.2068C8.98146 15.2068 8.38347 15.0539 7.83563 14.748C7.28778 14.4421 6.85183 14.0246 6.52776 13.4955C6.4043 13.2806 6.28856 13.0408 6.18053 12.7763C6.01078 12.3298 5.9259 11.8751 5.9259 11.4122V11.313C5.94134 9.92407 6.43516 8.41119 7.40738 6.77427C7.71603 6.26171 8.17127 5.62514 8.77313 4.86455C9.0509 4.53386 9.22066 4.33545 9.28238 4.26931L9.30553 4.24451C9.42899 4.14531 9.53701 4.0957 9.62961 4.0957C9.7222 4.0957 9.83022 4.14531 9.95368 4.24451L9.97683 4.26931Z" fill="white"/>
<path fill-rule="evenodd" clip-rule="evenodd" d="M10.0202 14.1139C10.7233 14.1139 11.3277 13.8537 11.8335 13.3334C12.3393 12.8132 12.5923 12.1915 12.5923 11.4684C12.5923 11.098 12.5237 10.7453 12.3865 10.4102C12.1636 11.2744 11.7349 12.0195 11.1005 12.6456C10.466 13.2717 9.72875 13.6729 8.88855 13.8493C9.26578 14.0257 9.64301 14.1139 10.0202 14.1139Z" fill="#ED2387"/>
</svg>
