<svg width="107" height="32" viewBox="0 0 107 32" fill="none" xmlns="http://www.w3.org/2000/svg">
<path fill-rule="evenodd" clip-rule="evenodd" d="M14.471 17.9739C14.5333 17.9917 14.6044 18.0095 14.6666 18.0184C14.6666 18.0184 14.391 18.125 13.8133 17.9295C13.8133 17.9295 13.3866 17.7517 13.0577 17.7873C12.6844 17.8228 12.4266 18.3117 12.4266 18.3117C12.4977 18.2673 12.5777 18.2406 12.6577 18.2228C12.9155 18.1695 12.8266 18.2139 12.8266 18.2139C12.8266 18.2139 12.3377 18.4184 12.3021 18.605C12.2933 18.6495 12.4355 18.525 12.791 18.5339C13.2355 18.5517 13.6266 18.8095 13.7866 18.845C14.1155 18.9339 14.5777 18.9517 15.0133 18.6139C15.0133 18.6139 15.4133 18.365 15.5288 17.9028C15.5644 17.7784 15.5821 17.645 15.5821 17.5117C15.5821 17.3961 15.5733 17.2806 15.5466 17.165C15.5555 17.165 15.3244 17.6984 14.471 17.9739Z" fill="white"/>
<path fill-rule="evenodd" clip-rule="evenodd" d="M22.8974 23.0145C23.7596 21.9301 24.2307 20.5879 24.2307 19.2012C24.2307 17.8145 23.7596 16.4723 22.8974 15.3879L28.4352 14.7745C28.4352 14.7745 29.0129 16.3568 29.1641 17.2012C29.1818 17.3079 29.2174 17.5301 29.2174 17.5301C29.2174 17.5301 28.3552 19.619 27.0396 20.7656C25.2707 22.2945 22.8974 23.0145 22.8974 23.0145ZM9.78627 22.9345L7.66183 23.3256C6.98627 21.619 6.74627 19.779 6.94183 17.9568C7.14627 16.1345 7.78627 14.3923 8.82627 12.8723C8.87072 12.8101 8.95961 12.6768 8.95961 12.6768L11.3063 19.2812L9.78627 22.9345Z" fill="url(#paint0_linear_22511_63685)"/>
<path fill-rule="evenodd" clip-rule="evenodd" d="M17.467 9.38783C17.4759 9.37894 17.4759 9.37894 17.4847 9.37005C17.5381 9.30783 18.8625 7.89449 17.2892 5.49449C16.1336 3.7256 13.1736 3.77894 11.9736 2.85449C12.0625 3.5656 12.7559 4.2056 12.6847 5.17449C12.6581 5.49449 12.5959 5.81449 12.507 6.11671C12.3647 6.66783 12.2314 7.20116 12.427 8.23227C12.5781 9.04116 12.9514 9.62783 13.5203 9.98338C14.1692 10.3834 15.0759 10.4723 16.0003 10.2234C16.6225 10.0545 17.1647 9.74338 17.467 9.38783Z" fill="url(#paint1_linear_22511_63685)"/>
<path fill-rule="evenodd" clip-rule="evenodd" d="M19.4311 8.35628C19.7689 7.76962 19.8311 7.09406 19.6267 6.33851C19.3333 5.28073 18.7822 4.5874 18.3378 4.03628C18.1956 3.85851 18.0622 3.69851 17.9644 3.53851C17.5378 2.91628 17.36 2.16073 17.4489 1.41406C16.9067 1.79628 15.8756 2.53406 15.2178 3.3074C16.1778 3.76962 16.9244 4.2674 17.5111 5.16517C18.5156 6.70295 18.4978 7.93851 18.3111 8.71184C18.2578 8.92517 18.6667 9.11184 18.5867 9.27184C18.9244 9.03184 19.2178 8.72073 19.4311 8.35628Z" fill="url(#paint2_linear_22511_63685)"/>
<path fill-rule="evenodd" clip-rule="evenodd" d="M26.7643 14.7301C25.6354 14.6235 23.3599 14.3479 23.3599 14.3479C18.2399 14.0635 15.3332 15.6013 13.1377 17.6101C11.4399 19.2901 9.93766 23.6546 9.93766 23.6546L8.09766 23.5568C8.09766 23.5568 8.68432 21.8146 9.35988 20.5524C10.1332 19.1035 10.311 19.219 10.1332 18.979C9.31543 17.8501 8.93321 16.9701 8.60432 15.0768C8.60432 15.0768 8.98655 15.379 9.27988 15.1924C9.27988 15.1924 8.6221 14.0457 8.51543 12.8013C8.33766 10.6057 9.35988 7.61015 9.38655 7.53904C9.37766 7.57459 9.32432 7.83237 9.92877 8.21459C9.97321 8.03681 10.0177 7.85904 10.0621 7.68126C10.2754 6.64126 10.8443 4.38348 11.9732 2.8457C11.9732 2.8457 12.6043 5.05904 14.2043 6.07237C17.3065 8.02793 19.2532 8.03681 19.2532 8.03681C23.6354 8.5257 25.511 10.6768 25.511 10.6768C28.6577 14.0724 31.5199 14.0368 31.5199 14.0368C30.4888 15.0324 26.7643 14.7301 26.7643 14.7301Z" fill="url(#paint3_linear_22511_63685)"/>
<path fill-rule="evenodd" clip-rule="evenodd" d="M31.5736 14.0454C31.5736 14.0454 31.1291 16.5165 28.7914 16.8009C28.7914 16.8009 20.3114 16.7476 19.6891 24.4543L19.5469 26.6231L9.36914 23.6543C9.36914 23.6543 10.3291 20.3831 12.4269 17.752C12.4269 17.752 15.9914 12.7209 26.1425 14.0454C26.1425 14.0454 27.3247 14.2854 28.9958 14.4365C30.3914 14.5787 31.5736 14.0454 31.5736 14.0454Z" fill="url(#paint4_linear_22511_63685)"/>
<path fill-rule="evenodd" clip-rule="evenodd" d="M25.7957 12.872C25.7957 12.872 23.5913 11.7253 20.8535 11.832C20.8535 11.832 22.3468 10.6675 24.3557 10.952L25.7957 12.872Z" fill="#722B00"/>
<path fill-rule="evenodd" clip-rule="evenodd" d="M20.2307 23.4058C20.2307 23.4058 20.9507 23.9036 22.0885 23.6369C22.0885 23.6369 20.2485 24.7036 16.3729 23.2369C16.3729 23.2369 12.3729 21.4503 9.56401 21.8592C7.75957 22.1169 6.15957 23.5569 5.19068 24.6503C4.01734 25.9747 4.16846 25.3525 7.10179 24.988C7.80401 24.8992 7.40401 25.1036 7.40401 25.1036C7.40401 25.1036 3.48401 26.748 3.21734 28.2058C3.15512 28.5703 4.24845 27.5392 7.15512 27.628C10.7107 27.7436 13.8129 29.8058 15.084 30.1525C17.6885 30.8458 21.4307 31.0058 24.8618 28.3214C24.8618 28.3214 28.0262 26.3392 29.004 22.668C29.2618 21.6458 29.4129 20.6058 29.4485 19.5569C29.5018 18.188 29.084 16.748 29.084 16.748C29.084 16.748 26.764 21.8769 20.2307 23.4058Z" fill="url(#paint5_linear_22511_63685)"/>
<path fill-rule="evenodd" clip-rule="evenodd" d="M102.622 21.2901H103.458V23.2457H102.267C101.405 23.2457 100.738 23.059 100.267 22.6857C99.7958 22.3124 99.5558 21.6724 99.5558 20.7657V17.6368H98.8447V15.7257H99.5558V13.8946H101.902V15.7257H103.44V17.6368H101.902V20.7657C101.911 21.1213 102.151 21.2901 102.622 21.2901ZM93.0936 20.2413C93.138 20.5701 93.2891 20.8457 93.5469 21.059C93.8047 21.2724 94.0802 21.379 94.3736 21.379C94.6669 21.379 94.8891 21.3524 95.0402 21.2901C95.1913 21.2279 95.298 21.1746 95.3602 21.1124C95.4314 21.0501 95.5202 20.9613 95.6269 20.819H98.1691C97.9469 21.5746 97.5113 22.179 96.8536 22.6413C96.1958 23.1035 95.4136 23.3346 94.5069 23.3346C93.3869 23.3346 92.4802 22.979 91.7602 22.2768C91.0491 21.5746 90.6936 20.6324 90.6936 19.4679C90.6936 18.3035 91.0491 17.3701 91.7602 16.6768C92.4714 15.9835 93.3869 15.6368 94.5158 15.6368C95.6447 15.6368 96.578 15.9746 97.3158 16.659C98.0536 17.3435 98.4269 18.2857 98.4269 19.5035C98.4269 19.7613 98.4091 20.0101 98.3736 20.2324L93.0936 20.2413ZM95.5113 17.9479C95.2358 17.7257 94.9158 17.619 94.5336 17.619C94.1602 17.619 93.8402 17.7257 93.5825 17.9479C93.3247 18.1701 93.1647 18.4546 93.1025 18.8013H95.9736C95.938 18.4546 95.778 18.1701 95.5113 17.9479ZM87.378 13.2812H89.7247V23.2546H87.378V13.2812ZM83.5025 13.2812H85.8491V23.2546H83.5025V13.2812ZM79.6536 22.1613C79.0847 22.9524 78.3291 23.3435 77.378 23.3435C76.4269 23.3435 75.6091 22.9879 74.9336 22.2679C74.258 21.5479 73.9202 20.6324 73.9202 19.5035C73.9202 18.3835 74.258 17.459 74.9336 16.7301C75.6091 16.0101 76.4358 15.6457 77.4136 15.6457C78.3913 15.6457 79.138 16.0013 79.6536 16.7124V15.7257H82.0002V23.2457H79.6536V22.1613ZM79.1469 18.1257C78.8091 17.8057 78.418 17.6457 77.9825 17.6457C77.5469 17.6457 77.1558 17.8057 76.818 18.1346C76.4802 18.4546 76.3113 18.9168 76.3113 19.5124C76.3113 20.1079 76.4802 20.5613 76.818 20.8813C77.1558 21.2013 77.5469 21.3613 77.9825 21.3613C78.418 21.3613 78.8091 21.2013 79.1469 20.8724C79.4847 20.5524 79.6536 20.0901 79.6536 19.4946C79.6536 18.899 79.4847 18.4368 79.1469 18.1257ZM68.5069 23.2457L66.818 17.2457L65.1469 23.2457H62.4536L59.7247 13.7879H62.2402L63.9113 20.5968L65.6269 13.7879H68.2936L69.938 20.4813L71.3691 13.7879H73.8936L71.2002 23.2457H68.5069ZM57.2802 19.3879L59.7514 23.2724H57.1558L54.7914 19.6368V19.6279L52.3025 15.7435H54.9425L56.1958 17.699L57.4313 15.7435H59.7514L57.2802 19.3879ZM50.4802 22.4724L49.218 20.5346C49.3602 20.259 49.4225 19.9124 49.4225 19.5035C49.4225 18.8901 49.2625 18.4279 48.9425 18.1079C48.6225 17.7879 48.2402 17.6279 47.8047 17.6279C47.6536 17.6279 47.5025 17.6457 47.3602 17.6901L46.2225 15.9301C46.7113 15.7435 47.2447 15.6546 47.8225 15.6546C48.9602 15.6546 49.9113 16.0013 50.6758 16.7035C51.4402 17.3968 51.8225 18.3301 51.8225 19.4857C51.8225 20.6501 51.4402 21.5835 50.6847 22.2946C50.6136 22.3568 50.5425 22.419 50.4802 22.4724ZM46.1958 19.5035C46.1958 20.1168 46.3558 20.579 46.6847 20.9079C47.0136 21.2279 47.3958 21.3968 47.8313 21.3968C48.098 21.3968 48.3291 21.3346 48.5514 21.219L49.6891 22.9701C49.138 23.2279 48.5158 23.3612 47.8313 23.3612C46.6936 23.3612 45.7425 23.0057 44.9691 22.2946C44.1958 21.5835 43.8047 20.6501 43.8047 19.4857C43.8047 18.3213 44.1869 17.3968 44.9602 16.7035C45.0936 16.579 45.2447 16.4635 45.3869 16.3657L46.5869 18.2057C46.3291 18.5168 46.1958 18.9524 46.1958 19.5035ZM38.9869 13.7968H43.298V15.5568H40.1247L38.9869 13.7968ZM39.3691 17.5924H42.3113V19.3435H39.3691V23.2724H37.0225V13.7968H37.8758L39.3691 16.0901V17.5924ZM55.3336 22.1613L54.6313 23.2635H52.3113L54.2225 20.4635L55.3336 22.1613Z" fill="#08080A"/>
<defs>
<linearGradient id="paint0_linear_22511_63685" x1="17.8013" y1="12.3216" x2="18.2441" y2="23.3114" gradientUnits="userSpaceOnUse">
<stop stop-color="#DADB48"/>
<stop offset="0.6562" stop-color="#637621"/>
</linearGradient>
<linearGradient id="paint1_linear_22511_63685" x1="18.0579" y1="6.6088" x2="12.6737" y2="6.6088" gradientUnits="userSpaceOnUse">
<stop stop-color="#EC6F01"/>
<stop offset="1" stop-color="#F4B23D"/>
</linearGradient>
<linearGradient id="paint2_linear_22511_63685" x1="17.6207" y1="7.51354" x2="17.3025" y2="2.31499" gradientUnits="userSpaceOnUse">
<stop stop-color="#F4B33E"/>
<stop offset="1" stop-color="#FB6F1B"/>
</linearGradient>
<linearGradient id="paint3_linear_22511_63685" x1="7.97775" y1="12.3909" x2="26.9153" y2="19.8704" gradientUnits="userSpaceOnUse">
<stop stop-color="#FB6D1A"/>
<stop offset="1" stop-color="#F3B23E"/>
</linearGradient>
<linearGradient id="paint4_linear_22511_63685" x1="12.2216" y1="23.3257" x2="30.2044" y2="15.4218" gradientUnits="userSpaceOnUse">
<stop stop-color="#F3B63F"/>
<stop offset="1" stop-color="#FB701C"/>
</linearGradient>
<linearGradient id="paint5_linear_22511_63685" x1="10.3668" y1="29.1439" x2="25.9359" y2="19.4364" gradientUnits="userSpaceOnUse">
<stop stop-color="#EC6F00"/>
<stop offset="1" stop-color="#F4B33E"/>
</linearGradient>
</defs>
</svg>
