<svg width="127" height="25" viewBox="0 0 127 25" fill="none" xmlns="http://www.w3.org/2000/svg">
<g clip-path="url(#clip0_8700_15914)">
<path d="M110.995 12.6574C110.352 12.2333 109.644 11.9318 108.973 11.5548C108.538 11.3098 108.075 11.093 107.698 10.782C107.055 10.2543 107.187 9.21776 107.858 8.76539C108.822 8.12459 110.418 8.48263 110.589 9.79259C110.589 9.82081 110.617 9.83972 110.645 9.83972H112.101C112.138 9.83972 112.167 9.81143 112.157 9.77376C112.082 8.86903 111.732 8.11514 111.09 7.63452C110.475 7.17275 109.776 6.92773 109.029 6.92773C105.184 6.92773 104.834 10.9894 106.903 12.2711C107.14 12.4218 109.171 13.4396 109.89 13.8825C110.607 14.3254 110.834 15.1359 110.522 15.7767C110.239 16.361 109.502 16.7662 108.765 16.7191C107.962 16.6719 107.338 16.2385 107.121 15.5599C107.083 15.4375 107.064 15.2018 107.064 15.0982C107.064 15.0699 107.036 15.0416 107.007 15.0416H105.43C105.402 15.0416 105.373 15.0699 105.373 15.0982C105.373 16.2385 105.657 16.8698 106.431 17.4447C107.159 17.9913 107.952 18.2175 108.775 18.2175C110.929 18.2175 112.044 17.0018 112.27 15.739C112.469 14.5044 112.101 13.3924 110.995 12.6574Z" fill="#161616"/>
<path d="M42.4867 7.13525H41.7876H41.0223C40.9939 7.13525 40.975 7.1541 40.9655 7.17295L39.6712 11.4325C39.6523 11.4891 39.5767 11.4891 39.5578 11.4325L38.2634 7.17295C38.254 7.14467 38.2351 7.13525 38.2067 7.13525H37.4415H36.7422H35.7974C35.7691 7.13525 35.7407 7.16352 35.7407 7.19179V18.0669C35.7407 18.0951 35.7691 18.1234 35.7974 18.1234H37.3753C37.4036 18.1234 37.432 18.0951 37.432 18.0669V9.80218C37.432 9.73621 37.5265 9.72683 37.5454 9.78334L38.8492 14.0712L38.9436 14.3727C38.9531 14.401 38.972 14.4105 39.0004 14.4105H40.2097C40.238 14.4105 40.2569 14.3916 40.2664 14.3727L40.3609 14.0712L41.6647 9.78334C41.6836 9.71738 41.7781 9.73621 41.7781 9.80218V18.0669C41.7781 18.0951 41.8065 18.1234 41.8348 18.1234H43.4127C43.4409 18.1234 43.4693 18.0951 43.4693 18.0669V7.19179C43.4693 7.16352 43.4409 7.13525 43.4127 7.13525H42.4867Z" fill="#161616"/>
<path d="M86.8357 7.13525C86.8074 7.13525 86.7884 7.1541 86.779 7.17295L85.4852 11.4325C85.4663 11.4891 85.3906 11.4891 85.3717 11.4325L84.0772 7.17295C84.0677 7.14467 84.0488 7.13525 84.0204 7.13525H81.6204C81.5921 7.13525 81.5637 7.16352 81.5637 7.19179V18.0669C81.5637 18.0951 81.5921 18.1234 81.6204 18.1234H83.1986C83.227 18.1234 83.2554 18.0951 83.2554 18.0669V9.80218C83.2554 9.73621 83.3499 9.72683 83.3688 9.78334L84.6721 14.0712L84.7666 14.3727C84.7761 14.401 84.795 14.4105 84.8234 14.4105H86.0328C86.0612 14.4105 86.0801 14.3916 86.0895 14.3727L86.1841 14.0712L87.4881 9.78334C87.507 9.71738 87.6015 9.73621 87.6015 9.80218V18.0669C87.6015 18.0951 87.6299 18.1234 87.6583 18.1234H89.2357C89.2641 18.1234 89.2924 18.0951 89.2924 18.0669V7.19179C89.2924 7.16352 89.2641 7.13525 89.2357 7.13525H86.8357Z" fill="#161616"/>
<path d="M66.4847 7.13525H63.5463H61.9684H59.0301C59.0017 7.13525 58.9734 7.16352 58.9734 7.19179V8.5488C58.9734 8.57709 59.0017 8.60538 59.0301 8.60538H61.9118V18.0669C61.9118 18.0951 61.9401 18.1234 61.9684 18.1234H63.5463C63.5746 18.1234 63.603 18.0951 63.603 18.0669V8.60538H66.4847C66.513 8.60538 66.5413 8.57709 66.5413 8.5488V7.19179C66.5413 7.16352 66.5225 7.13525 66.4847 7.13525Z" fill="#161616"/>
<path d="M75.7915 18.123H77.2271C77.265 18.123 77.2933 18.0853 77.2839 18.0477L74.3173 7.13486C74.3079 7.10659 74.289 7.09717 74.2606 7.09717H73.7127H72.749H72.201C72.1727 7.09717 72.1538 7.11602 72.1443 7.13486L69.1776 18.0477C69.1682 18.0853 69.1965 18.123 69.2343 18.123H70.6704C70.6988 18.123 70.7177 18.1042 70.7271 18.0853L71.5869 14.9095C71.5963 14.8813 71.6152 14.8718 71.6436 14.8718H74.8184C74.8468 14.8718 74.8657 14.8906 74.8751 14.9095L75.7348 18.0853C75.7442 18.1042 75.7726 18.123 75.7915 18.123ZM72.0215 13.3169L73.1742 9.06672C73.193 9.01021 73.2687 9.01021 73.2876 9.06672L74.4402 13.3169C74.4497 13.3546 74.4213 13.3922 74.3835 13.3922H72.0782C72.0404 13.3922 72.0121 13.3546 72.0215 13.3169Z" fill="#161616"/>
<path d="M100.281 18.123H101.717C101.754 18.123 101.783 18.0853 101.773 18.0477L98.8067 7.13486C98.7973 7.10659 98.7784 7.09717 98.75 7.09717H98.2024H97.2388H96.6904C96.662 7.09717 96.6431 7.11602 96.6337 7.13486L93.6671 18.0477C93.6577 18.0853 93.686 18.123 93.7238 18.123H95.1602C95.1886 18.123 95.2075 18.1042 95.2169 18.0853L96.0766 14.9095C96.086 14.8813 96.1049 14.8718 96.1333 14.8718H99.3078C99.3362 14.8718 99.3551 14.8906 99.3646 14.9095L100.224 18.0853C100.234 18.1042 100.253 18.123 100.281 18.123ZM96.5107 13.3169L97.6635 9.06672C97.6824 9.01021 97.758 9.01021 97.7769 9.06672L98.9297 13.3169C98.9391 13.3546 98.9108 13.3922 98.8729 13.3922H96.5675C96.5297 13.3922 96.5013 13.3546 96.5107 13.3169Z" fill="#161616"/>
<path d="M49.875 16.5118V13.1381C49.875 13.1098 49.9034 13.0815 49.9318 13.0815H54.1361C54.1645 13.0815 54.1929 13.0533 54.1929 13.025V11.6679C54.1929 11.6397 54.1645 11.6114 54.1361 11.6114H49.9318C49.9034 11.6114 49.875 11.5831 49.875 11.5549V8.67122C49.875 8.64292 49.9034 8.61463 49.9318 8.61463H54.7125C54.7409 8.61463 54.7692 8.58634 54.7692 8.55812V7.20108C54.7692 7.17281 54.7409 7.14453 54.7125 7.14453H49.875H48.2406C48.2122 7.14453 48.1838 7.17281 48.1838 7.20108V8.61463V11.6208V13.091V16.5778V18.0667C48.1838 18.095 48.2122 18.1233 48.2406 18.1233H49.875H54.9109C54.9393 18.1233 54.9676 18.095 54.9676 18.0667V16.6343C54.9676 16.6061 54.9393 16.5778 54.9109 16.5778H49.9223C49.8939 16.5684 49.875 16.5495 49.875 16.5118Z" fill="#161616"/>
<path d="M125.413 18.029L119.951 12.403C119.933 12.3842 119.933 12.3465 119.951 12.3277L124.865 7.23877C124.903 7.20108 124.874 7.14453 124.827 7.14453H122.815C122.796 7.14453 122.786 7.15396 122.777 7.16338L118.61 11.4795C118.573 11.5172 118.516 11.4889 118.516 11.4418V7.20108C118.516 7.17281 118.487 7.14453 118.459 7.14453H116.881C116.853 7.14453 116.824 7.17281 116.824 7.20108V18.0762C116.824 18.1045 116.853 18.1327 116.881 18.1327H118.459C118.487 18.1327 118.516 18.1045 118.516 18.0762V13.2889C118.516 13.2418 118.582 13.2135 118.61 13.2511L123.334 18.1138C123.343 18.1233 123.362 18.1327 123.372 18.1327H125.384C125.422 18.1233 125.45 18.0573 125.413 18.029Z" fill="#161616"/>
<path d="M24.9603 1.28271L15.4082 8.35057L17.1845 4.18525L24.9603 1.28271Z" fill="#E17726" stroke="#E17726" stroke-width="0.25" stroke-linecap="round" stroke-linejoin="round"/>
<path d="M2.92725 1.28271L12.3943 8.41653L10.7031 4.18525L2.92725 1.28271Z" fill="#E27625" stroke="#E27625" stroke-width="0.25" stroke-linecap="round" stroke-linejoin="round"/>
<path d="M21.521 17.6709L18.9795 21.5535L24.4216 23.0519L25.9806 17.7558L21.521 17.6709Z" fill="#E27625" stroke="#E27625" stroke-width="0.25" stroke-linecap="round" stroke-linejoin="round"/>
<path d="M1.91626 17.7558L3.46574 23.0519L8.89843 21.5535L6.36632 17.6709L1.91626 17.7558Z" fill="#E27625" stroke="#E27625" stroke-width="0.25" stroke-linecap="round" stroke-linejoin="round"/>
<path d="M8.60567 11.1118L7.09399 13.3924L12.4794 13.6374L12.2999 7.8418L8.60567 11.1118Z" fill="#E27625" stroke="#E27625" stroke-width="0.25" stroke-linecap="round" stroke-linejoin="round"/>
<path d="M19.2819 11.1119L15.531 7.77588L15.4082 13.6375L20.7936 13.3925L19.2819 11.1119Z" fill="#E27625" stroke="#E27625" stroke-width="0.25" stroke-linecap="round" stroke-linejoin="round"/>
<path d="M8.89868 21.5535L12.1582 19.9798L9.35221 17.7935L8.89868 21.5535Z" fill="#E27625" stroke="#E27625" stroke-width="0.25" stroke-linecap="round" stroke-linejoin="round"/>
<path d="M15.7295 19.9798L18.9796 21.5535L18.5355 17.7935L15.7295 19.9798Z" fill="#E27625" stroke="#E27625" stroke-width="0.25" stroke-linecap="round" stroke-linejoin="round"/>
<path d="M18.9796 21.5537L15.7295 19.98L15.994 22.0909L15.9656 22.9862L18.9796 21.5537Z" fill="#D5BFB2" stroke="#D5BFB2" stroke-width="0.25" stroke-linecap="round" stroke-linejoin="round"/>
<path d="M8.89868 21.5537L11.9221 22.9862L11.9032 22.0909L12.1582 19.98L8.89868 21.5537Z" fill="#D5BFB2" stroke="#D5BFB2" stroke-width="0.25" stroke-linecap="round" stroke-linejoin="round"/>
<path d="M11.9785 16.399L9.27637 15.6074L11.1849 14.731L11.9785 16.399Z" fill="#233447" stroke="#233447" stroke-width="0.25" stroke-linecap="round" stroke-linejoin="round"/>
<path d="M15.9089 16.399L16.7026 14.731L18.6206 15.6074L15.9089 16.399Z" fill="#233447" stroke="#233447" stroke-width="0.25" stroke-linecap="round" stroke-linejoin="round"/>
<path d="M8.89853 21.5535L9.37096 17.6709L6.36646 17.7558L8.89853 21.5535Z" fill="#CC6228" stroke="#CC6228" stroke-width="0.25" stroke-linecap="round" stroke-linejoin="round"/>
<path d="M18.5166 17.6709L18.9796 21.5535L21.5211 17.7558L18.5166 17.6709Z" fill="#CC6228" stroke="#CC6228" stroke-width="0.25" stroke-linecap="round" stroke-linejoin="round"/>
<path d="M20.7936 13.3926L15.4082 13.6376L15.9089 16.3988L16.7026 14.7308L18.6206 15.6072L20.7936 13.3926Z" fill="#CC6228" stroke="#CC6228" stroke-width="0.25" stroke-linecap="round" stroke-linejoin="round"/>
<path d="M9.2765 15.6072L11.185 14.7308L11.9787 16.3988L12.4794 13.6376L7.09399 13.3926L9.2765 15.6072Z" fill="#CC6228" stroke="#CC6228" stroke-width="0.25" stroke-linecap="round" stroke-linejoin="round"/>
<path d="M7.09399 13.3926L9.35211 17.7935L9.27647 15.6072L7.09399 13.3926Z" fill="#E27525" stroke="#E27525" stroke-width="0.25" stroke-linecap="round" stroke-linejoin="round"/>
<path d="M18.6207 15.6072L18.5356 17.7935L20.7938 13.3926L18.6207 15.6072Z" fill="#E27525" stroke="#E27525" stroke-width="0.25" stroke-linecap="round" stroke-linejoin="round"/>
<path d="M12.4796 13.6377L11.9788 16.3989L12.6118 19.6595L12.7535 15.3623L12.4796 13.6377Z" fill="#E27525" stroke="#E27525" stroke-width="0.25" stroke-linecap="round" stroke-linejoin="round"/>
<path d="M15.4084 13.6377L15.1438 15.3529L15.2761 19.6595L15.9091 16.3989L15.4084 13.6377Z" fill="#E27525" stroke="#E27525" stroke-width="0.25" stroke-linecap="round" stroke-linejoin="round"/>
<path d="M15.9091 16.3986L15.2761 19.6592L15.7297 19.9796L18.5358 17.7933L18.6208 15.6069L15.9091 16.3986Z" fill="#F5841F" stroke="#F5841F" stroke-width="0.25" stroke-linecap="round" stroke-linejoin="round"/>
<path d="M9.27637 15.6069L9.352 17.7933L12.158 19.9796L12.6116 19.6592L11.9785 16.3986L9.27637 15.6069Z" fill="#F5841F" stroke="#F5841F" stroke-width="0.25" stroke-linecap="round" stroke-linejoin="round"/>
<path d="M15.9659 22.9861L15.9942 22.0909L15.7486 21.8835H12.1394L11.9032 22.0909L11.9221 22.9861L8.89868 21.5537L9.95686 22.4207L12.1016 23.9003H15.7769L17.931 22.4207L18.9798 21.5537L15.9659 22.9861Z" fill="#C0AC9D" stroke="#C0AC9D" stroke-width="0.25" stroke-linecap="round" stroke-linejoin="round"/>
<path d="M15.7295 19.9795L15.276 19.6592H12.6117L12.1582 19.9795L11.9031 22.0905L12.1393 21.8832H15.7485L15.9941 22.0905L15.7295 19.9795Z" fill="#161616" stroke="#161616" stroke-width="0.25" stroke-linecap="round" stroke-linejoin="round"/>
<path d="M25.3665 8.81232L26.1696 4.91088L24.9603 1.28271L15.7295 8.11501L19.2819 11.1117L24.2989 12.5725L25.4043 11.2814L24.9225 10.9327L25.6877 10.2354L25.102 9.78301L25.8673 9.19871L25.3665 8.81232Z" fill="#763E1A" stroke="#763E1A" stroke-width="0.25" stroke-linecap="round" stroke-linejoin="round"/>
<path d="M1.71802 4.91088L2.53056 8.81232L2.01091 9.19871L2.78565 9.78301L2.19987 10.2354L2.96517 10.9327L2.48331 11.2814L3.58874 12.5725L8.60573 11.1117L12.1582 8.11501L2.92738 1.28271L1.71802 4.91088Z" fill="#763E1A" stroke="#763E1A" stroke-width="0.25" stroke-linecap="round" stroke-linejoin="round"/>
<path d="M24.299 12.5725L19.282 11.1118L20.7938 13.3924L18.5356 17.7933L21.5212 17.7556H25.9807L24.299 12.5725Z" fill="#F5841F" stroke="#F5841F" stroke-width="0.25" stroke-linecap="round" stroke-linejoin="round"/>
<path d="M8.60549 11.1118L3.58857 12.5725L1.91626 17.7556H6.36632L9.35189 17.7933L7.09382 13.3924L8.60549 11.1118Z" fill="#F5841F" stroke="#F5841F" stroke-width="0.25" stroke-linecap="round" stroke-linejoin="round"/>
<path d="M15.4083 13.6376L15.7295 8.11524L17.1845 4.18555H10.7031L12.1581 8.11524L12.4793 13.6376L12.6022 15.3716L12.6116 19.6595H15.276L15.2855 15.3716L15.4083 13.6376Z" fill="#F5841F" stroke="#F5841F" stroke-width="0.25" stroke-linecap="round" stroke-linejoin="round"/>
</g>
<defs>
<clipPath id="clip0_8700_15914">
<rect width="125.091" height="24" fill="white" transform="translate(0.990723 0.555664)"/>
</clipPath>
</defs>
</svg>
